<svg xmlns="http://www.w3.org/2000/svg" viewBox="0 0 240 180" width="240" height="180">
  <!-- sparkles -->
  <g fill="#C9A24B">
    <path d="M96 34 l2.6 7 7 2.6 -7 2.6 -2.6 7 -2.6 -7 -7 -2.6 7 -2.6 Z"/>
    <path d="M150 22 l2 5.4 5.4 2 -5.4 2 -2 5.4 -2 -5.4 -5.4 -2 5.4 -2 Z" opacity="0.8"/>
    <path d="M122 12 l1.6 4.4 4.4 1.6 -4.4 1.6 -1.6 4.4 -1.6 -4.4 -4.4 -1.6 4.4 -1.6 Z" opacity="0.6"/>
  </g>
  <!-- open lid -->
  <path d="M60 92 C60 62 76 44 96 44 L100 52 C84 54 70 68 70 92 Z" fill="#B08A5E" stroke="#C9A24B" stroke-width="2"/>
  <path d="M60 92 L70 92" stroke="#C9A24B" stroke-width="2"/>
  <!-- chest body -->
  <path d="M52 92 L188 92 L182 148 Q181.5 152 177 152 L63 152 Q58.5 152 58 148 Z" fill="#A87B50" stroke="#C9A24B" stroke-width="2"/>
  <!-- inner opening (empty) -->
  <ellipse cx="120" cy="92" rx="68" ry="10" fill="#6E4E2E"/>
  <!-- planks -->
  <line x1="86" y1="100" x2="84" y2="150" stroke="#C9A24B" stroke-width="1.5" opacity="0.7"/>
  <line x1="120" y1="102" x2="120" y2="152" stroke="#C9A24B" stroke-width="1.5" opacity="0.7"/>
  <line x1="154" y1="100" x2="156" y2="150" stroke="#C9A24B" stroke-width="1.5" opacity="0.7"/>
  <!-- bands -->
  <path d="M52 112 L186 112" stroke="#C9A24B" stroke-width="2" opacity="0.8"/>
  <path d="M56 134 L184 134" stroke="#C9A24B" stroke-width="2" opacity="0.8"/>
  <!-- lock -->
  <rect x="108" y="104" width="24" height="22" rx="4" fill="#C9A24B"/>
  <circle cx="120" cy="112" r="3.5" fill="#F7F2E9"/>
  <path d="M120 114 L120 120" stroke="#F7F2E9" stroke-width="2.4" stroke-linecap="round"/>
  <!-- corner studs -->
  <g fill="#C9A24B">
    <circle cx="64" cy="146" r="2.4"/>
    <circle cx="176" cy="146" r="2.4"/>
    <circle cx="66" cy="98" r="2.2"/>
    <circle cx="174" cy="98" r="2.2"/>
  </g>
  <!-- ground shadow -->
  <ellipse cx="120" cy="164" rx="76" ry="6" fill="#2B2620" opacity="0.08"/>
</svg>
